# xmcd
#
# Track frame offsets:
#	150
#	18139
#	35237
#	50087
#	62371
#	87274
#	99484
#	113991
#	125567
#	137603
#	155772
#	170176
#
# Disc length: 2427 seconds
#
# Revision: 1
# Processed by: cddbd v1.5.2PL0 Copyright (c) Steve Scherf et al.
# Submitted via: audiograbber 1.83.01
#
DISCID=a609790c
DTITLE=Cashmonies and the Jetsetter - Thinking out loud
DYEAR=2003
DGENRE=Blues
TTITLE0=15 Years
TTITLE1=Someday
TTITLE2=takin´ it outTrack  3
TTITLE3=Cleaning up
TTITLE4=Broken glass
TTITLE5=Worth a Damn
TTITLE6=Cemetary Hill
TTITLE7=Here with me
TTITLE8=Out of my reach
TTITLE9=Get it on the way
TTITLE10=Daddy´s girl
TTITLE11=Make mine stronger
EXTD=
EXTT0=
EXTT1=
EXTT2=
EXTT3=
EXTT4=
EXTT5=
EXTT6=
EXTT7=
EXTT8=
EXTT9=
EXTT10=
EXTT11=
PLAYORDER=
